<?xml version="1.0" encoding="UTF-8" standalone="no"?>
<svg id="svg4641" xmlns:rdf="http://www.w3.org/1999/02/22-rdf-syntax-ns#" xmlns="http://www.w3.org/2000/svg" height="854" viewBox="0 0 855 854" width="855" version="1.1" xmlns:cc="http://creativecommons.org/ns#" xmlns:dc="http://purl.org/dc/elements/1.1/">
<path id="path4651" d="m434.83 850.79c-4.9967-2.6624-6.7231-3.0354-14.596-3.1538-5.872-0.0882-9.489-0.59861-10.564-1.4906-1.401-1.1627-2.2437-1.0045-5.9036 1.1084-16.36 9.4447-42.945-4.5637-27.167-14.315 15.036-9.2928 2.096-27.635-20.865-29.576-10.517-0.88897-21.757 3.3721-24.786 9.3961-0.75867 1.5089-2.2281 4.001-3.2654 5.5382-2.0729 3.0717-2.516 9.2752-0.78604 11.005 1.5261 1.5261 1.3759 5.9404-0.27911 8.2038-2.1581 2.9514-12.47 3.2489-20.36 0.58729-5.347-1.8039-6.9191-1.9489-11-1.015-9.1385 2.0913-25.796-1.4676-30.938-6.6101-0.79-0.81-2.52-1.47-3.82-1.47-12.784 0-20.696-15.043-15.628-29.711 2.5009-7.2381 1.9395-7.7408-6.9849-6.2543-4.0595 0.67616-8.0558 1.2001-8.8808 1.1642-5.0667-0.22006-17.982-2.4379-27-4.6365-5.775-1.408-11.1-2.5605-11.833-2.5612-10.797-0.0105-37.315-18.747-43.783-30.935-1.586-2.9887-3.9688-6.403-5.2951-7.5873-6.5025-5.8064-9.6923-30.085-5.4738-41.663 4.2154-11.57 3.6857-12.818-5.4361-12.812-11.112 0.007-16.673 6.145-15.618 17.239 0.76021 7.9971 0.45897 8.2573-9.5606 8.2573-15.606 0-27.073-24.093-16.764-35.221 2.7838-3.0048 1.1882-4.8081-5.5288-6.2486-17.737-3.81-36.408-28.75-38.954-52.04-1.0399-9.5128-0.80677-11.424 2.7756-22.752 0.61694-1.9509 0.28062-2.3379-2.5181-2.8976-6.87-1.37-11.004-7.08-11.004-15.2 0-6.86-0.096-7.15-2.375-7.15-24.284 0-31.468-41.01-8.93-50.98 15.026-6.6468 30.432 4.1676 23.908 16.783-2.024 3.91-2.007 4.2 0.242 4.2 14.264 0 5.8359-37.363-8.7441-38.764-4.9125-0.47203-6.4564 0.0154-13.82 4.3635-9.1775 5.4193-15.548-10.315-9.2082-22.742 3.7405-7.332 15.144-13.417 20.136-10.745 3.3718 1.8045 1.5613 4.1711-4.1218 5.3879-5.252 1.12-13.087 9.43-13.087 13.87 0 7.0013 2.4179 8.4484 7.4726 4.4723 14.115-11.103 36.656 13.777 31.596 34.873-3.4272 14.286-19.38 22.435-26.871 13.726-4.0523-4.711-2.7498-7.8364 3.5288-8.4677 8.4102-0.84569 10.902-7.4576 4.7913-12.714-8.605-7.4-25.158 3.39-24.15 15.74 1.3674 16.75 6.997 24 18.637 24 5.3754 0 7.4272 1.8994 6.5756 6.0871-2.3302 11.458-2.3169 11.489 6.7787 15.913 6.1832 3.0071 6.5136 4.3235 4.2382 16.884-1.5724 8.6797-1.1477 17.043 1.174 23.116 0.52562 1.375 1.2777 4.6917 1.6713 7.3704 1.3175 8.9667 16.751 26.758 27.972 32.247 10.686 5.2267 15.213 4.3295 6.3589-1.2601-25.386-16.03-29.921-54.36-6.431-54.36 4.3453 0 5.4935-2.4021 2.8444-5.9505-2.6321-3.5256-8.1798-4.3377-12.782-1.8709-4.3947 2.3554-5.8552 1.5915-3.9609-2.0717 4.4097-8.5275 19.511-13.696 27.904-9.5507 8.3794 4.1383 13.237 17.459 6.6511 18.24-13.372 1.58-13.724 17.2-0.39 17.2 5.6678 0 9.1221-2.4051 15.5-10.792 3.2154-4.2282 4.6786-3.5831 8.139 3.5884 2.8735 5.9553 4.6415 8.6825 12.194 18.81 2.5045 3.3583 4.5537 6.4188 4.5537 6.8012 0 1.676 28.848 32.002 37.188 39.093 1.2937 1.1 5.0817 4.475 8.4178 7.5 14.174 12.852 23.128 19.494 48.895 36.266 3.85 2.506 11.5 6.8978 17 9.7596s11.8 6.2412 14 7.5098 6.4014 3.0818 9.3364 4.0292c5.287 1.7066 7.2908 3.7086 5.5022 5.4972-0.56924 0.56924-5.1547-0.0531-11.883-1.6128-20.033-4.6439-42.95-8.469-50.657-8.4552-18.567 0.0331-37.266-13.039-36.682-25.644 0.33066-7.1383-0.91528-8.1979-4.8228-4.1018-11.42 11.971-3.9036 36.613 13.991 45.87 2.0819 1.0771 3.5179 2.391 3.191 2.92-0.99346 1.6075-6.0598 1.0763-8.5914-0.90078-1.3117-1.0243-3.4154-2.1854-4.6749-2.5801-20.957-6.5676-20.477-50.996 0.586-54.154 9.5062-1.4255 13.988 4.1666 6.7579 8.4324-4.9934 2.9462-3.5244 10.896 2.9554 15.993 4.8341 3.8025 7.5909 2.8211 3.2484-1.1564-5.4825-5.0218-5.9969-14.592-0.85648-15.936 7.1398-1.8671-0.69139-14.922-12.665-21.114-1.78-0.92-3.24-2-3.24-2.4 0-8.3169-27.5-6.0049-32.769 2.7549-0.83453 1.3874-2.267 3.6475-3.1832 5.0225-3.4362 5.1566-5.7199 23.728-3.2247 26.223 0.64751 0.64751 1.1773 2.2251 1.1773 3.5058 0 24.568 48.539 53.073 83 48.742 3.025-0.38015 9.55-0.8019 14.5-0.93721 8.4589-0.23124 11.868-0.8944 38.94-7.5741 9.6729-2.3867 28.641-2.7714 30.428-0.61718 1.8186 2.1913 0.25869 2.658-8.8838 2.658-28.586 0-47.147 12.375-50.555 33.706-1.1342 7.0992 10.807 15.05 13.208 8.7939 0.93117-2.4266 3.1125-1.7425 6.6088 2.0726 8.7902 9.5918 28.61 10.711 30.177 1.7045 2.7456-15.785 26.198-35.629 39.142-33.12 4.0069 0.77678 2.364 2.7144-3.26 3.8447-23.035 4.6296-38.573 29.568-24.55 39.401 5.1605 3.6185 7.342 2.6623 5.2805-2.3146-5.46-13.17 15.81-33.08 35.34-33.08 24.723 0 46.58 24.078 34.247 37.729-5.8685 6.4958-5.1701 7.6175 4.3982 7.0636 6.9878-0.40452 8.3832-0.80857 10.805-3.1285 3.3146-3.1756 6.4388-3.3852 9.8983-0.66398 2.032 1.5984 4.0718 2.003 10.158 2.0148 4.1883 0.008 10.527 0.70099 14.085 1.5397 6.0755 1.432 6.807 1.4066 12-0.41647 3.0416-1.0678 8.1792-2.4817 11.417-3.142 4.9314-1.0058 6.614-1.949 10.368-5.8116l4.4814-4.611 2.1319 2.6409c1.1725 1.4525 2.9606 3.8253 3.9735 5.2729 2.3974 3.4263 5.7168 4.6126 13.004 4.6475 8.0929 0.0387 8.8106-1.4923 3.1403-6.6982-25.699-23.594 25.476-56.928 57.25-37.291 10.906 6.7403 12.249 23.795 1.8796 23.87-5.7114 0.0413-6.1362 4.7669-0.60296 6.7086 4.0275 1.4133 12.139 0.73259 16.228-1.362 15.944-8.1658-3.5106-40.518-25.801-42.905-9.7129-1.0402-9.331-3.9891 0.41079-3.1724 13.772 1.1546 33.15 17.109 33.15 27.293 0 2.1751 2.8986 10.339 4.3426 12.231 5.1297 6.7206 26.05 4.2097 29.586-3.5509 2.7908-6.1251 0.37636-10.134-2.8302-4.6994-4.2558 7.213-14.727 9.2471-20.783 4.0374l-2.6925-2.316 8.1043-0.46915c9.9804-0.57776 12.1-1.8669 15.144-9.2123l2.3502-5.6703-2.8607-4.1772c-4.5479-6.6406-13.131-14.49-18.965-17.345-7.9426-3.886-5.4644-5.9673 3.4204-2.8727 15.525 5.4073 27.256 20.815 27.74 36.432 0.26095 8.4293 0.94451 9.1688 5.1806 5.6043 5.3821-4.5287 6.3712-7.9441 4.1611-14.368-1.05-3.02-1.9-6.24-1.9-7.15 0-1.93-7.5-12.39-11.62-16.2-7.35-6.78-17.13-9.84-31.5-9.84-11.012 0-11.675-2.6499-1.2149-4.8534 6.2703-1.3208 31.363 0.0331 41.84 2.2576 10.778 2.2886 33.918 4.702 38.708 4.0372 53.011-7.3575 85.317-53.33 59.248-84.311-7.7746-9.2396-33.611-14.494-31.012-6.3072 0.52089 1.6412-0.007 2.4167-2.5346 3.7237-4.3106 2.2291-9.5006 7.9319-12.505 13.74-2.6076 5.0417-4.4088 5.4119-4.3985 0.90397 0.009-3.8245 2.4646-8.0461 6.8787-11.824 2.0958-1.794 5.7916-5.9677 8.2129-9.2749 7.3081-9.9823 14.748-11.394 28.232-5.3571l5.8294 2.6098 6.9666-1.8069c17.024-4.4156 32.205 2.3418 33.628 14.969 0.97226 8.6259 13.229 2.4163 16.641-8.4308 4.1874-13.312 2.8475-17.205-6.6229-19.242-5.479-1.1782-6.3152-1.6636-6.6174-3.8413-0.1902-1.371-0.82363-3.0743-1.4076-3.7851-1.4346-1.7462-0.3443-2.5026 6.6627-4.6225 19.168-5.7989 27.096-26.014 14.961-38.148-4.6175-4.6175-6.2608-4.1448-8.2498 2.3728-2.938 9.6274-17.932 21.807-21.928 17.812-1.2653-1.2653-1.3327-2.0183-0.36996-4.1313 4.5486-9.9832-2.5124-17.932-12.144-13.672-5.8567 2.5907-6.0152 2.995-4.6037 11.745 2.3183 14.371-1.7825 20.86-18.302 28.961-6.1528 3.017-12.578 6.8334-14.277 8.4808-2.9514 2.8606-7.4952 4.0836-7.4952 2.0175 0-0.53785 3.15-4.6291 7-9.0918 3.85-4.4626 7-8.4964 7-8.9639 0-0.46753 2.2216-3.3888 4.9369-6.4918 5.06-5.8 14.05-18.52 14.05-19.9 0-0.42451 2.3625-4.6851 5.25-9.4681 7.6134-12.611 14.419-26.74 19.802-41.113 1.5449-4.125 4.5717-11.775 6.7262-17s4.1795-10.625 4.5001-12c0.32056-1.375 1.0331-4.075 1.5834-6 0.55029-1.925 2.1498-7.522 3.5544-12.438 4.4237-15.482 9.9764-55.126 9.6731-69.062-0.13478-6.1933 0.8173-7.7543 4.4707-7.3301 3.8653 0.44884 6.8439 5.6416 6.7372 11.745-0.0789 4.5074-0.56454 6.5812-5.7577 24.585-5.6122 19.456-3.5968 38.567 5.1626 48.95 4.0796 4.8358 3.8757 5.6475-1.896 7.5504-8.5006 2.8025-11.249 7.9318-8.3365 15.558 2.0413 5.3452 1.703 5.9987-3.5387 6.8369-16.33 2.6112-29.274 23.386-22.952 36.836 3.9635 8.432 10.297 8.8708 12.877 0.89211 3.1382-9.7056 20.758-16.113 26.218-9.5348 1.7873 2.1535 0.57853 2.6856-3.5262 1.5522-5.8108-1.6044-14.149 1.2742-16.474 5.6875-1.7741 3.367-0.79516 4.9315 2.7593 4.4098 27.076-3.9739 26.53 37.06-0.66095 49.7-5.2643 2.4472-6.6241 5.1582-2.9428 5.8672 21.365 4.1145 46.86-43.366 37.129-69.148-3.2257-8.5463-3.0095-9.8859 2.0203-12.517 7.2608-3.7981 7.9543-5.0494 8.441-15.231l0.43046-9.0033 6.6219-3.0025c15.349-6.9597 22.166-25.483 13.437-36.513-10.046-12.695-28.565-4.6872-25.981 11.234 1.4406 8.8774 11.092 10.011 15.024 1.7641 2.1152-4.4356 5.0083-4.3143 5.4519 0.22844 1.566 16.036-25.57 16.143-34.368 0.13579-10.62-19.323 13.414-51.966 28.326-38.471 4.47 4.05 10.24 0.85 10.24-5.67 0-11.85-4.0157-16.342-13.543-15.152-7.3551 0.91896-7.7384-0.57021-1.7528-6.8098 8.3048-8.6572 18.121-24.644 19.908-32.423 3.0393-13.229 3.3873-15.32 3.3285-19.994-0.37744-29.985-22.169-50.73-48.166-45.853-16.247 3.048-24.638 29.359-11.784 36.952 4.1705 2.4636 4.9596 2.1264 4.3153-1.844-0.6219-3.8323 1.7941-11.498 4.272-13.555 2.2137-1.8372 2.8536-0.38943 1.3898 3.1444-3.7202 8.9812 1.8085 21.814 6.0132 13.957 3.6596-6.838 18.278-10.541 25.951-6.5736 10.906 5.6395 14.025 24.032 6.7649 39.89-4.4067 9.6255-6.0717 7.0588-2.1757-3.3541 3.5785-9.5644-1.8657-28.575-9.0418-31.574-8.841-3.694-12.72-0.94547-9.7214 6.8892 5.7005 14.896 3.3234 29.626-6.5661 40.686-4.8567 5.4316-5.8139 4.8486-6.4065-3.9022-0.71858-10.611-9.1681-14.854-16.797-8.4349-3.8636 3.251-4.6543 2.3484-4.2656-4.87 0.40727-7.5626-1.5497-32.954-3.2211-41.794-0.77993-4.125-2.3607-13.8-3.5128-21.5-2.2512-15.046-3.1882-19.02-8.4875-36-1.8882-6.05-4.3784-14.15-5.5337-18-2.7226-9.0727-4.4874-13.256-9.7021-23-2.3548-4.4-6.7812-12.95-9.8364-19-8.0531-15.947-13.648-24.813-25.464-40.35-1.945-2.5575-4.5812-6.45-5.8584-8.65-3.3054-5.694-7.8366-10.835-22.523-25.553-14.255-14.287-14.883-15.764-4.7007-11.071 3.7992 1.7512 9.9924 3.7837 13.763 4.5169 18.694 3.6349 27.714 14.606 22.332 27.162-2.3611 5.5081-2.0348 7.1713 2.1359 10.887 12.011 10.702 26.225 3.1813 20.388-10.788-3.07-7.3476-1.638-8.273 5.6853-3.6736 7.2754 4.5693 10.22 10.424 10.017 19.918-0.24268 11.364 1.691 13.737 9.7818 12.004 18.307-3.9209 12.522-33.66-8.9841-46.185-9.1288-5.3166-10.116-7.885-4.4351-11.533 12.71-8.1617 6.751-36.291-7.7525-36.595l-4.2814-0.0898-0.63597 5c-1.1682 9.185-5.4407 16.525-10.895 18.717-9.9868 4.0139-17.832 4.5012-27.392 1.7016-12.827-3.7564-16.064-5.0303-19.568-7.7022-2.9848-2.2761-4.7703-2.7236-13-3.258-11.54-0.74938-19.497-4.3114-32.653-14.619-18.252-14.299-47.492-29.958-75.637-40.505-1.5125-0.5668-2.75-1.6615-2.75-2.4327 0-2.2205 5.2721-1.6852 10.813 1.0978 2.7376 1.375 5.5025 2.5 6.1443 2.5 0.64178 0 3.2764 0.62817 5.8548 1.3959 7.824 2.3298 26.02 4.7215 38.204 5.0217 6.3338 0.15604 13.084 0.75944 15 1.3409 1.9162 0.58145 6.037 1.835 9.1574 2.7857 5.5513 1.6913 8.8266 1.5141 8.8266-0.47766 0-2.9715-13.421-5.885-32.776-7.1154-21.47-1.39-31.18-3.04-41.2-7.03-10.058-4.0102-2.0717-5.108 10.55-1.4502 7.275 2.1082 11.879 2.6937 24.936 3.1714 29.08 1.06 52.51 10.57 52.51 21.32 0 2.7053-4.0594 2.7192-6.5 0.0223-3.1021-3.4277-11.655-1.9084-15.865 2.8182-5.7806 6.4898 0.95439 21.828 10.365 23.606 14.151 2.6734 22.372 1.569 29.645-3.9824 6.95-5.305 9.9502-0.80312 3.7664 5.6514-3.9539 4.127-2.7065 6.3132 3.221 5.645 20.799-2.3443 22.837-40.248 3.2217-59.927-14.49-14.539-51.59-23.714-76.35-18.882-21.742 4.2431-34.932 5.4231-48.42 4.3316-10.391-0.84084-14.296-3.2258-5.4136-3.3058 5.1415-0.04633 10.925-1.0801 15.833-2.8299 1.65-0.58828 4.2004-1.3067 5.6676-1.5964 13.04-2.577 23.42-31.53 11.3-31.53-1.7326 0-1.7727 0.10552-3.4172 9-2.4034 12.998-32.249 29.891-40.586 22.971-2.29-1.898-1.76-3.971 1.01-3.971 1.3639 0 4.1764-0.64068 6.25-1.4237 2.0736-0.78305 5.9972-1.724 8.719-2.0911 11.426-1.5409 18.97-18.461 13.666-30.652-6.1936-14.236-32.677-18.737-30.649-5.2096 0.91295 6.088-2.3026 6.2836-4.999 0.30406-2.2027-4.8847-5.37-7.5548-10.647-8.9757-6.3826-1.7187-10.234 0.80043-6.2625 4.0963 8.6781 7.2022 4.9166 23.424-7.0578 30.437-28.338 16.597-69.482-10.821-50.343-33.549 4.4541-5.2896 4.6423-6.2626 1.6209-8.3789-4.8632-3.4063-11.664-1.9883-19.671 4.1016-5.2576 3.9987-5.524 4.0266-8.2712 0.86703-2.654-3.0523-6.1877-4.1891-15.786-5.0784-4.098-0.37966-9.498-1.5786-12-2.6643-8.7556-3.7995-28.686 1.3046-32.267 8.2635-3.1682 6.1566-5.6932 6.1445-9.9878-0.04761-3.8212-5.5096-7.8765-7.373-14.547-6.6845-8.8226 0.91058-10.073 4.8789-2.4549 7.792 5.2926 2.0239 8.5808 14.364 5.6783 21.311-7.8087 18.689-30.421 25.657-53.918 16.616-10.096-3.8848-16.646-21.561-10.026-27.055 3.1359-2.6026 1.8-4.9808-2.7765-4.9426-10.962 0.0914-15.624 9.2694-10.395 20.465 5.5323 11.846 14.677 17.049 32.949 18.746 16.629 1.5443 18.192 5.4457 1.6967 4.2354-24.14-1.772-39.66-12.775-42.97-30.481-2.8846-15.415-32.602-8.2853-35.321 8.4739-0.77776 4.7928 1.7931 13.183 4.48 14.621 1.1609 0.62127 3.9855 2.8577 6.2769 4.9699 4.95 4.565 8.18 5.935 13.98 5.935 4.5961 0 7.1996 1.8841 6.2006 4.4873-0.89402 2.3298-5.1162 1.8123-12.976-1.5905-15.69-6.796-22.35-13.962-23.61-25.397-0.6037-5.4908-4.866-6.7862-9.2561-2.8132-8.0919 7.3231 7.1977 24.254 27.508 30.461 5.1289 1.5674 6.7244 2.4793 6.4878 3.7079-0.93833 4.8724-12.293 5.6727-49.508 3.4895-26.558-1.558-50.575 3.3541-61.751 12.63-0.85416 0.7089-2.8888 2.0172-4.5214 2.9072-16.83 9.176-27.805 40.896-19.589 56.618 0.86223 1.65 1.5866 3.45 1.6098 4 0.1896 4.5009 12.192 13.5 18.006 13.5 5.2837 0 7.4901-1.7281 4.3897-3.4381-3.3036-1.822-13.587-12.575-13.184-13.786 0.85371-2.5611 2.9547-1.6665 7.9854 3.4004 13.039 13.133 37.019 7.367 37.218-8.949 0.067-5.495-1.2057-6.141-5.3042-2.6922-15.2 12.79-35.684-7.8871-29.779-30.06 3.8685-14.526 24.76-31.344 32.779-26.388 2.0192 1.248-0.12002 2.8959-5.2577 4.0503-17.393 3.9079-28.553 29.29-17.798 40.48 5.6467 5.8751 12.185 8.1331 10.448 3.6085-7.4729-19.474 24.21-33.642 78.675-35.181 2.5897-0.0732 7.0897-0.74126 10-1.4846 2.9103-0.74338 7.3164-1.6774 9.7914-2.0755 2.475-0.39815 6.75-1.5166 9.5-2.4854 6.628-2.335 18.881-4.4514 21.019-3.6306 5.2119 2-7.1372 6.6225-36.019 13.483-6.7894 1.6126-12.316 2.1495-22.5 2.1858-23.942 0.0854-53 5.378-53 9.6535 0 1.7684 1.7517 1.5806 15-1.6079 8.3633-2.0128 48.06-4.7822 50.138-3.4978 1.7863 1.104-0.55624 2.5973-15.463 9.8572-13.658 6.6517-24.842 13.64-36.091 22.551-5.352 4.2398-7.9184 3.7476-8.6398-1.6569-0.6-4.49-2.36-7.33-4.56-7.33-1.7624 0-1.7363 1.2056 0.12244 5.6542 5.2865 12.652-6.4962 28.243-21.432 28.358-0.86268 0.007-3.4488 1.0872-5.747 2.4014-16.699 9.5488-44.389 10.053-61.322 1.1168-3.0246-1.5962-7.663-9.6252-8.5387-14.78-0.70856-4.171-1.2832-4.4106-5.4321-2.2651-9.1577 4.7356-11.435 20.733-4.1351 29.047 4.5077 5.134 4.1493 8.1314-1.7065 14.271-9.3049 9.7561-12.976 25.464-8.1005 34.655 3.1801 5.9946 4.6666 6.3993 6.5441 1.7818 5.361-13.16 12.502-21.24 18.778-21.24 3.9158 0 5.3509 1.3926 3.6041 3.4973-9.4694 11.41 1.6416 23.79 14.998 16.711 9.0131-4.7771 10.075-3.19 3.6404 5.4427-5.8733 7.88-8.8682 13.501-11.641 21.849-2.7642 8.3219-6.712 16.883-9.7577 21.16-2.7534 3.8669-10.296 26.554-13.245 39.84-3.0419 13.703-4.4373 18.805-7.4474 27.229-3.8034 10.644-5.6353 21.877-5.9764 36.645-0.31242 13.525-1.7438 19.948-5.3282 23.908-1.605 1.7735-1.6021 1.938 0.05098 2.8631 1.491 0.83442 1.7443 2.433 1.6902 10.668-0.03503 5.3276 0.06638 11.023 0.22535 12.656 0.26419 2.7142-0.02592 3.0218-3.3749 3.5786-5.9118 0.9829-8.5082 3.3473-10.911 9.936-2.6936 7.3874-5.0356 7.9326-9.9638 2.3196-10.932-12.47-12.278-40.32-1.948-40.32 4.1139 0 3.8806-3.8152-0.35705-5.8401-12.569-6.0062-26.847 12.298-23.241 29.796 1.8924 9.183-0.99686 9.8314-3.9666 0.89024-7.4711-22.493 18.517-47.252 33.371-31.793 4.0193 4.1829 5.4108 4.1008 7.1298-0.42049 1.7231-4.5321-0.31714-10.326-4.5064-12.798-3.6615-2.1603-4.6034-4.8424-1.6934-4.8216 6.4772 0.0461 12.667 11.661 9.831 18.448-1.937 4.64-1.937 4.54 0.016 4.54 9.557 0 14.26-18.18 8.268-31.96-10.781-24.8-52.097-8.2-58.386 23.46-5.0367 25.357 2.8235 51.1 18.517 60.643 5.9653 3.6277 2.6872 5.2658-3.8568 1.9273-28.739-14.662-27.149-76.017 2.4717-95.4 6.535-4.2761 6.6732-5.9225 0.6837-8.1436-25.235-9.36-22.631-47.69 3.591-52.87 9.969-1.96 16.244 5.24 11.615 13.34-3.6964 6.4662-1.0063 9.9208 4.6107 5.9212 6.4867-4.619 9.2143-26.98 4.6867-38.421-19.754-49.921-12.052-85.056 21.619-98.616 5.4158-2.181 6.7498-4.4352 3.951-6.6764-11.056-8.8533-1.1676-32.816 14.404-34.904 10.305-1.3822 15.911 2.1043 14.214 8.8415-2.7555 10.943 3.7646 15.932 21.765 16.655 13.142 0.52755 13.644 0.0434 6.7993-6.566-12.236-11.815-15.406-39.117-6.1229-52.734 1.8747-2.75 3.9186-6.933 4.5419-9.2956 0.82537-3.1284 2.0026-4.8106 4.3325-6.1907 1.7596-1.0423 3.6845-2.3174 4.2776-2.8335 0.59312-0.51614 2.8431-2.0594 5-3.4296 2.1569-1.3701 4.7614-3.4302 5.7878-4.578s4.8514-3.0714 8.5-4.2747 7.5214-2.7976 8.6063-3.5429c1.08-0.75 2.93-1.36 4.11-1.36 1.1784 0 3.4123-0.9987 4.9641-2.2193 1.9104-1.5028 4.4563-2.3011 7.8849-2.4727 14.125-0.70686 18.746-1.1523 23.31-2.2471 4.5037-1.0804 5.3099-0.99681 8.3688 0.86803 1.8617 1.135 4.427 2.0653 5.7007 2.0674s3.0737 0.39139 4 0.86518c7.6087 3.8916 15.231 1.5433 10.092-3.1093-11.467-10.382-17.332-28.53-11.471-35.494 3.5382-4.2049 9.0274-6.0527 11.455-3.8559 2.9056 2.6295 5.1086 2.0263 5.1086-1.3989 0-11.825 31.941-22.671 38.632-13.118 1.957 2.794 3.2069 2.6691 4.3883-0.43822 1.7665-4.6463 10.974-7.9825 17.854-6.4689 9.5094 2.0923 11.041 2.7951 16.78 7.6974 5.9812 5.1099 5.9588 5.0224 3.7462 14.593-2.1867 9.4593 23.67 15.724 32.041 7.7634 10.063-9.5697 8.8655-21.32-2.4492-24.034-9.207-2.2087-10.209-6.6496-3.019-13.375 9.471-8.859 17.759-9.0381 30.674-0.66271 1.9304 1.2518 2.4622 1.1264 5.281-1.2455 3.9035-3.2846 8.2771-4.5896 18.863-5.6284 6.539-0.64167 8.8023-1.2943 10.713-3.0891 2.3992-2.2539 2.4477-2.2576 5.0917-0.38621 5.0689 3.5876 6.885 4.3051 12.385 4.8925 9.9534 1.0631 13.981 2.5197 15.595 5.6405 1.8978 3.6699 2.2976 3.6121 6.628-0.9578 6.6552-7.0232 14.345-7.6404 23.068-1.8515 9.09 6.034 11.81 19.666 3.93 19.666-1.92 0-4.2 5.637-4.2 10.383 0 18.777 49.139 21.003 53.548 2.4257 0.66253-2.7913-0.15853-3.8824-6.8603-9.1162-5.6888-4.4428-4.3909-13.727 2.4107-17.244 5.1677-2.6723 18.099-1.298 22.212 2.3607 1.571 1.3973 1.9307 1.4173 2.7135 0.15061 1.5751-2.5486 18.348-2.0005 24.171 0.78976 2.5823 1.2375 5.1187 2.25 5.6363 2.25 0.51766 0 3.3437 2.2556 6.2801 5.0124 3.2508 3.052 7.4674 5.8088 10.781 7.0486 18.361 6.8696 21.133 22.696 6.5328 37.296-7.0314 7.0314-6.5398 7.6378 3.8538 4.7538 37.714-10.465 64.777-6.0213 86.374 14.182 23.513 21.995 28.125 50.909 11.19 70.148-5.5072 6.2566-4.5691 7.0803 7.958 6.9877 17.676-0.13064 26.797-8.3581 23.301-21.018-2.6366-9.549 13.654-10.013 19.906-0.5675 1.3315 2.0117 3.8192 5.2578 5.5282 7.2137 4.5584 5.2168 6.1152 13.483 4.031 21.404-1.9824 7.5346-1.9643 8.4582 0.18183 9.2411 10.38 3.7869 29.322 22.62 36.005 35.799 6.1526 12.133 7.4754 36.618 3.0901 57.197-4.2888 20.126-2.7574 40.675 3.4185 45.871 7.8738 6.6254 10.021-4.6521 2.5449-13.365-4.45-5.2-1.94-8.2 6.89-8.2 19.426 0 29.415 31.444 15.181 47.785-3.517 4.0375-3.5384 4.6581-0.23846 6.9185 26.798 18.357 29.16 64.931 4.8082 94.828-5.4393 6.678-5.4436 6.4022 0.16216 10.428 6.1936 4.4479 8.3985 8.3117 8.4031 14.725 0.009 12.304-8.5149 20.011-14.175 12.815-7.8501-9.9798-28.702 3.5901-28.071 18.268 0.44465 10.334 5.5667 16.645 6.5781 8.1054 2.2443-18.95 25.128-23.592 36.838-7.4728 8.6077 11.849-1.766 37.555-17.582 43.568-2.2218 0.84475-2.5856 1.5829-2.5904 5.2575-0.009 6.8672-1.742 11.278-6.5192 16.591-5.1809 5.7624-5.1189 5.3222-2.3733 16.855 5.3875 22.629-8.7116 54.903-26.732 61.191-10.063 3.5114-11.624 6.0473-8.3794 13.616 4.0545 9.4588-2.1875 23.874-12.608 29.117-11.468 5.7698-15.26 4.442-13.866-4.8549 1.0094-6.7314-7.5995-11.738-20.184-11.74-10.416-0.00085-10.988 0.74311-6.2509 8.1256 8.8306 13.761 6.9527 37.484-4.1842 52.858-1.4773 2.0393-3.4606 5.2058-4.4073 7.0366-2.6407 5.1066-15.367 16.939-20.989 19.515-20.733 9.4985-41.687 13.977-54.494 11.648-3.022-0.54961-5.826-0.79437-6.2313-0.54392-0.40524 0.25046-5.7362-0.74003-11.847-2.2011-12.902-3.0851-15.239-2.4374-9.0095 2.4967 21.128 16.734 20.077 47.961-1.6185 48.087-2.0898 0.0121-5.8247 0.96088-8.2997 2.1084-9.3737 4.3462-18.888 5.7628-24.667 3.6729-2.9145-1.0539-3.6526-0.94292-6.1861 0.93023-6.7577 4.9962-19.464 6.9865-26.831 4.2028-9.9795-3.7705-11.229-13.043-2.2602-16.77 14.342-5.9604 0.84103-20.578-19.055-20.63-23.772-0.0625-41.891 21.492-28.697 34.136 11.85 11.356-5.4475 22.7-21.997 14.425-7.187-3.5935-9.1536-3.7882-12.421-1.2295-3.7309 2.9214-10.912 5.8192-16.372 6.6068-2.7428 0.39564-6.2079 1.3508-7.7003 2.1226-1.4924 0.77176-2.8484 1.3599-3.0132 1.307-0.16481-0.0529-2.8498-1.455-5.9666-3.1158zm-329.61-141.54c1.7707-17.859 22.03-29.808 35.287-20.812 4.5825 3.1098 3.8158 3.1055 11.305 0.0625 3.3839-1.375 7.4849-2.5 9.1134-2.5s3.2273-0.43111 3.5529-0.95802c0.97-1.57-14.55-16.55-20.48-19.75-21.03-11.36-24.4-14.21-26.73-22.54-1.83-6.57-2.36-6.75-9.27-3.25-2.7134 1.375-5.8003 2.5-6.8598 2.5-2.9322 0-3.399 2.8452-1.0818 6.5945 3.345 5.4124 0.51603 7.1597-5.5361 3.4193-3.4859-2.1544-10.337-10.77-13.51-16.99-3.7693-7.3884-6.3652-6.269-6.2807 2.7083 0.16361 17.37 9.3559 29.805 27.565 37.291 9.2583 3.8062 10.011 6.502 2.1175 7.5874-9.3299 1.283-14.423 5.9395-14.408 13.173 0.02601 12.667 14.058 25.09 15.211 13.466zm-9.22-105.24c0-1.4294-7.1156-4.1857-8.9471-3.4657-1.1618 0.45665-0.67135 1.0836 1.9471 2.4894 3.8531 2.0686 7 2.5075 7 0.9763zm-42.074-238.98c24.081-8.5158 36.629-52.764 20.423-72.023-2.6083-3.0998-2.7812-6.7638-0.29005-6.1464 9.1019 2.2556 14.91 1.1342 20.417-3.9421 11.677-10.764 10.764-31.708-1.1071-25.397-28.316 15.056-45.464-27.562-20.819-51.743 9.2261-9.052 5.0245-9.0288-7.3273 0.0405-6.8235 5.0102-15.909 15.859-16.827 20.093-0.30892 1.4252-1.4175 4.8412-2.4635 7.5912-3.2737 8.607-4.2626 15.135-3.0326 20.02 0.605 2.4 1.1 5.96 1.1 7.9 0 1.9453 0.66836 5.2336 1.4852 7.3072 1.498 3.8026 4.935 16.031 8.6488 30.77 3.8456 15.263 1.1538 31.164-6.508 38.446-4.343 4.1276-4.5413 5.7495-0.87601 7.1664 7.4805 2.8917 18.872-2.1098 23.422-10.283 3.031-5.45 4.828-6.04 4.828-1.61 0 14.81-26.625 27.219-37.025 17.255-7.0679-6.7715-8.748-15.844-4.4358-23.955 2.9291-5.5088 2.724-6.0106-2.3248-5.6895-12.334 0.78467-21.778 16.163-17.77 28.938 3.6891 11.758 9.1301 15.491 25.055 17.19 3.85 0.41072 7.0037 0.81275 7.0082 0.89341 0.0045 0.0807 3.7927-1.1916 8.4181-2.8273zm760.45-17.962c19.579-4.6408 26.743-33.683 10.031-40.665-7.735-3.2319-9.5182-1.7867-6.9115 5.6014 8.8208 25.001-20.048 37.967-34.822 15.641-3.6634-5.536-6.2841-13.752-3.9208-12.291 0.58798 0.36339 1.3612 2.3898 1.7182 4.503 1.6652 9.8562 18.103 18.848 25.084 13.722 1.8957-1.3923 1.8794-1.4919-0.69471-4.25-9.0873-9.737-11.275-29.17-6.3984-56.824 6.1913-35.107 1.8849-56.526-14.601-72.621-9.4681-9.2437-11.631-6.2418-4.825 6.6967 11.031 20.969-11.254 49.432-24.798 31.674-8.3318-10.924-16.93 9.8207-9.7565 23.539 5.0128 9.5869 15.367 15.92 23.792 14.553 6.4808-1.0517 6.6452 3.5712 0.68601 19.282-2.4656 6.5003 2.4471 30.109 7.7773 37.375 10.631 14.493 20.412 18.147 37.64 14.064zm-493.38-290.75c0-0.37406-2.0901-2.6265-4.6446-5.0054l-4.6446-4.3252 0.59381-7.0829 0.5938-7.0829-2.1992 1.4583c-6.413 4.2523-5.9152 13.935 0.98744 19.205 4.07 3.112 9.31 4.705 9.31 2.833zm108.29 764.37c-4.23-1.57-10.29-7.24-10.29-9.63 0-3.55-1.18-5.06-3.96-5.06-2.957 0-11.289-4.02-14.542-7.0159-1.1-1.0132-4.6149-3.2145-7.8109-4.8917-8.4129-4.4152-8.2176-4.2328-6.1495-5.745 2.422-1.771 6.1583-1.7055 16.46 0.28871 15.907 3.0791 21.767 6.7271 29.288 18.232 3.6202 5.5382 5.4343 5.115 9.2124-2.149 4.3252-8.3158 13.981-15.947 23-18.177 4.9237-1.2173 20.941-3.3199 21.75-2.8551 1.9495 1.1204 0.2828 3.1255-4.5807 5.5108-2.9319 1.4379-7.4796 4.4743-10.106 6.7474-2.6264 2.2732-7.3665 5.441-10.533 7.0397-4.772 2.4089-5.8673 3.4526-6.3957 6.0944-1.6867 8.4335-16.114 15.044-25.347 11.614zm-149.55-1.8998c-4.5811-1.2162-11.344-10.301-10.245-13.763 0.99881-3.147 4.5097-1.6036 4.5097 1.9825 0 4.1286 5.7197 7.4341 13.548 7.8294 8.0558 0.4068 9.1038 1.2522 4.5018 3.632-3.3025 1.7078-6.7484 1.7972-12.314 0.31949zm-20.575-8.0337c-5.47-5.47 13.7-26.9 23.84-26.66l2.5 0.0593-2.5942 1.1688c-1.4268 0.64283-4.255 2.6313-6.2848 4.4188s-4.1002 3.25-4.6008 3.25c-1.6433 0-8.7869 10.943-9.4496 14.475-0.74402 3.966-1.7555 4.9403-3.4106 3.2852zm27.666-4.4465c-2.7-1.69-4.83-5.17-4.83-7.86 0-2.2176 1.293-1.7511 4.1402 1.4936 1.422 1.6206 3.6598 3.1674 4.9727 3.4373s3.6566 0.76056 5.2082 1.0904c4.2108 0.89503 2.6768 2.989-2.3992 3.275-2.7967 0.15755-5.4046-0.37003-7.0958-1.4355zm300.42-1.97c-2.2709-0.91633-1.3045-2.3321 2.6803-3.9265 3.9431-1.5777 6.0697-4.9702 6.0697-9.6829 0-1.6406 0.25286-1.7634 1.5-0.72833 5.9511 4.939-2.8908 17.307-10.25 14.338zm-289.24-6.3114c-1.1378-0.71932-1.2144-1.2202-0.32322-2.1115 1.5352-1.5352 6.3149-0.32097 6.3149 1.6042 0 1.671-3.6607 1.981-5.9916 0.50728zm134.49-4.0353c-0.93-1.5 0.44-4.99 1.94-4.99 2.3823 0 3.9696 2.7956 2.5551 4.5-1.4319 1.7254-3.5969 1.9613-4.5055 0.49105zm147.18-1.6467c-1.1984-1.1984-0.73419-1.9976 1.8424-3.1715 1.386-0.63153 2.9638-2.3153 3.5062-3.7418 1.1069-2.9113 3.3206-2.8032 3.7654 0.18393 0.4719 3.1693-7.0904 8.753-9.1139 6.7294zm-11.68-8.22c0-1.2063 4.5697-4.115 6.4648-4.115 2.0543 0 1.938 1.3255-0.29356 3.345-1.9286 1.7454-6.1713 2.2747-6.1713 0.77zm-174.69-18.21c-8.1169-0.72382-15.392-1.927-45.174-7.4709-8.4997-1.5822-8.0346-1.4593-23.14-6.1153-11.694-3.6044-20.301-6.8457-27.5-10.356-2.2-1.0726-8.725-4.0969-14.5-6.7206-51.17-23.25-102.45-66.37-132.33-111.25-3.112-4.675-6.4482-9.6084-7.4136-10.963-0.96544-1.3547-3.148-4.9547-4.85-8-1.71-3.05-5.5-9.82-8.43-15.04-17.39-30.97-30.376-72.04-35.888-113.5-4.24-31.89-3.472-77.7 1.544-92.12 1.3135-3.7782 1.263-4.5583-0.60089-9.287-2.5956-6.585-2.6239-15.767-0.09601-31.088 2.9741-18.026 5.5859-26.413 13.548-43.5 2.3064-4.95 4.7573-10.708 5.4464-12.797 0.68911-2.0881 2.9975-5.8122 5.1298-8.2759s5.2235-6.4366 6.8693-8.8287 5.3718-6.318 8.2799-8.7241 5.9626-5.1326 6.7878-6.0588c9.1052-10.22 27.156-11.536 36.764-2.6796 6.3626 5.8649 18.752 10.822 27.12 10.852 1.8612 0.007 5.1381 0.53743 7.2821 1.1798 2.8772 0.86205 4.1914 0.87458 5.0181 0.0479 1.3855-1.3855 0.28173-1.8642-15.684-6.8023-13.841-4.281-20.159-7.1981-23.577-10.887-3.47-3.74-7.25-5.53-11.68-5.53-17.82 0 15.85-45.06 55.75-74.62 15.79-11.697 23.465-17.115 27.278-19.253 2.3221-1.3025 5.347-3.1531 6.722-4.1126 4.2048-2.934 18.349-10.701 20.994-11.529 1.372-0.4293 7.447-3.1216 13.5-5.9828 12.088-5.714 20.394-9.0731 25.006-10.112 1.65-0.37185 4.2857-1.3244 5.8571-2.1168 1.5714-0.79241 7.1964-2.5621 12.5-3.9327s12.793-3.5394 16.643-4.8195c3.85-1.2802 9.7-2.6097 13-2.9545 12.196-1.2742 23.2-2.5597 30.5-3.5629 21.513-2.9563 64.93-0.92652 93.5 4.3713 21.676 4.0194 37.573 8.2726 56.019 14.988 7.1067 2.5871 37.876 16.777 40.628 18.737 1.4641 1.0426 3.1199 1.8955 3.6794 1.8955 0.55955 0 4.0372 2.025 7.728 4.5 3.6909 2.475 6.9044 4.5 7.1412 4.5 6.7425 0 54.716 40.64 73.805 62.523 3.3 3.783 7.5911 8.7004 9.5357 10.928 3.279 3.7553 7.547 9.1362 10.836 13.662 2.0725 2.8514-0.15427 4.8873-5.3454 4.8873-6.3934 0-10.152 1.6802-11.605 5.1879-2.4304 5.8675-8.7502 6.7896-30.816 4.4962-14.144-1.47-14.735-2.0471-10.712-10.464 3.8819-8.1219 1.2303-14.75-2.8882-7.2199-10.444 19.097-10.125 20.611 4.4933 21.315 4.125 0.19851 11.431 0.94297 16.235 1.6544 11.702 1.7329 24.515 0.28661 26.765-3.0213 8.1216-11.936 21.848-11.155 34.558 1.9667 9.2276 9.527 26.023 35.599 29.044 45.085 8.3514 26.228 10.294 39.797 10.167 71-0.0581 14.242 0.36666 24.882 1.1572 28.99 10.203 53.02-12.069 151.5-46.062 203.67-3.5869 5.5052-7.4433 11.587-12.468 19.662-1.7071 2.7434-3.7486 5.4801-4.5367 6.0815-0.78807 0.6014-2.5287 2.6684-3.8681 4.5934-7.3297 10.534-34.498 40.707-41.491 46.08-1.1 0.84507-5.9128 4.8853-10.695 8.9784-11.58 9.9114-22.09 17.942-28.805 22.01-3.025 1.8328-7.075 4.5662-9 6.0743-3.9667 3.1075-19.048 11.328-29.5 16.08-3.85 1.7504-10.15 4.8169-14 6.8146s-11.5 5.1206-17 6.9399-13.6 4.5257-18 6.0144c-12.809 4.3336-38.646 10.026-54.5 12.007-4.675 0.58421-11.546 1.4986-15.269 2.0319-7.9377 1.1372-46.167 1.057-59.418-0.12453zm69.19-16.26c4.95-0.80466 12.337-2.0018 16.415-2.6603 4.0784-0.65848 9.1974-1.826 11.376-2.5946 2.1783-0.76854 5.4277-1.3974 7.2209-1.3974 3.0268 0 22.054-5.383 35.988-10.181 23.861-8.2166 53.27-23.024 69.732-35.11 3.1528-2.3147 9.3937-6.8435 13.868-10.064 13.289-9.5642 34.868-29.932 48.36-45.644 2.5974-3.025 6.9086-7.9859 9.5805-11.024 14.722-16.74 35.678-51.216 43.447-71.476 1.2655-3.3 3.681-9.2666 5.3678-13.259 10.955-25.929 14.865-44.531 20.128-95.741 1.4286-13.902 1.2422-31.657-0.4933-47-0.80877-7.15-1.475-13.068-1.4805-13.152-0.005-0.0837-1.3272-0.61136-2.9371-1.1726-2.4872-0.86706-3.0303-1.7082-3.6135-5.5978-0.93-6.1-2.47-5.84-2.47 0.42 0 6.2021-1.6444 6.5542-2.5455 0.5451-1.3743-9.1645-5.4069-9.754-5.4392-0.7951-0.008 2.3375-0.41717 4.25-0.90832 4.25-1.08 0-2.11-2.46-2.11-5.02 0-1.0192-0.46849-3.0853-1.0411-4.5914-1.841-4.8421-4.4485-0.92395-2.99 4.4927 1.1306 4.1988 0.67724 6.6328-1.038 5.5727-0.51199-0.31643-0.9309-1.8128-0.9309-3.3252 0-3.6372-2.2424-6.6368-4.3554-5.826-1.1066 0.42464-1.6655 1.8681-1.7086 4.4125l-0.064 3.7814-1.6341-3.2852c-2.7461-5.5207-4.8044-3.8526-4.387 3.5556 0.41306 7.333-0.36988 8.0256-1.9552 1.7296-1.56-6.18-4.9-6.52-4.9-0.51 0 2.2-0.45 4-1 4s-1-0.42071-1-0.9349c0-2.8677-2.0521-5.9824-3.5602-5.4036-1.3046 0.50063-1.4956 1.4807-0.97074 4.9809 0.60229 4.0163-0.91832 6.5216-1.8863 3.1076-0.19492-0.6875-0.88349-3.1946-1.5301-5.5714-1.22-4.48-4.05-4.52-4.05-0.06 0 1.04-0.44 1.88-0.98 1.88-0.96566 0-1.3261-1.1587-2.4591-7.9047-0.76-4.54-2.22-6.1-5.68-6.1-6.2539 0-9.3264-8.7974-4.9382-14.139 2.786-3.3913 6.7203-1.094 10.061 5.8745 5.8648 12.235 9.2122 13.418 21.695 7.6702 17.144-7.895 28.782-9.0344 40.109-3.9268 11.32 5.1047 15.459-21.243 7.6151-48.479-0.8712-3.025-2.4558-8.875-3.5214-13-6.33-24.51-27.06-53.67-43.2-60.77-5.62-2.48-12.7-0.58-12.7 3.4 0 5.3112-30.937 9.3613-44.507 5.8268-18.388-4.7896-31.733 0.09-38.064 13.918-4.6813 10.225-2.3947 18.751 6.0996 22.744 7.8209 3.6763 4.9425 10.235-5.8714 13.379-21.205 6.1645-37.429-22.592-25.654-45.473 5.3728-10.441 20.296-15.974 29.887-11.081 8.3362 4.2528 12.631 0.30963 4.7153-4.3293-15.691-9.1953-34.254-1.9564-44.611 17.397-4.1104 7.6804-2.553 26.326 2.9101 34.84 14.36 22.37 50.1 21.04 50.1-1.87v-5.7214l-5.9476-2.5794c-6.6584-2.8877-8.9548-7.1351-7.1568-13.237 6.7592-22.938 37.191-16.96 56.703 11.139 7.6524 11.02 10.468 15.876 11.46 19.759 0.44344 1.7362 2.1661 6.9818 3.8281 11.657 5.5014 15.475 9.0647 47.949 5.7576 52.471-2.4189 3.308-4.1401 1.1162-5.9745-7.6077-2.8167-13.396-2.7816-13.323-6.5654-13.686-7.2808-0.69975-13.701 8.7923-12.693 18.766 0.36441 3.6062 0.90869 9.0317 1.2095 12.057 0.30083 3.025 1.4578 10.45 2.571 16.5 5.2749 28.667 3.3964 62.117-5.2788 94-1.1972 4.4-2.9692 10.925-3.9377 14.5-2.2942 8.4684-12.768 32.338-18.623 42.443-2.5315 4.3685-5.4999 9.5435-6.5964 11.5-23.19 41.38-78.73 85.7-127.26 101.55-46.18 15.09-75.51 17.52-121.68 10.09-38.56-6.21-79.62-24.91-111.32-50.69-11.217-9.123-29.772-27.087-34.092-33.007-1.0492-1.4376-5.4973-7.2876-9.8847-13-16.726-21.777-29.095-47.274-38.028-78.386-9.3843-32.684-10.585-88.334-2.4046-111.46 1.0774-3.0462 2.6413-8.458 3.4752-12.026 0.8339-3.5682 2.1729-7.4899 2.9754-8.7148 1.9386-2.9587 1.8547-9.2879-0.16125-12.166-1.838-2.624-4.6608-2.5835-16.379 0.23499-3.575 0.85984-8.1609 1.5792-10.191 1.5985-4.4722 0.0426-4.6596 0.3125-5.4469 7.8445-1.0764 10.299 14.516 12.141 18.633 2.2018 1.38-3.3 5.42-7 7.67-7 3.0025 0 3.8271 4.7353 1.6138 9.2675-4.8822 9.9975-7.219 15.577-8.7161 20.81-2.19 7.65-9.56 13.37-9.56 7.42 0-4.0222-2.771-2.9962-4.1265 1.5278-1.4678 4.899-3.4851 4.6481-3.0802-0.38316 0.54468-6.7688-2.522-4.6295-5.1682 3.6054-1.2849 3.9985-2.9009 1.7263-2.3115-3.25 0.84929-7.1709-1.7236-6.8374-3.8566 0.5-2.1796 7.4974-3.9214 7.2178-3.1148-0.5 0.95823-9.1678-2.0729-8.0724-4.8426 1.75-1.0697 3.7937-3.8804 2.8796-3.0747-1 0.37125-1.7875 0.93375-4.4875 1.25-6 0.47993-2.2953 0.23478-2.75-1.4826-2.75-2.1208 0-2.5817 0.90751-3.6315 7.1495-0.66083 3.9292-2.9229 6.6918-4.0226 4.9125-0.35185-0.56931-0.16943-2.7287 0.4054-4.7986 2.4986-8.9971-0.18688-11.371-3.0903-2.7319-2.2952 6.8294-4.1454 7.1503-3.2722 0.56764 1.323-9.9731-2.7919-5.7768-5.0508 5.1508-0.33294 1.6106-1.2282 2.75-2.1607 2.75-1.3078 0-1.457-0.66994-0.83551-3.75 1.7389-8.6171-0.12916-10.201-2.9094-2.4667-2.5331 7.0468-3.9064 6.6385-3.4756-1.0333 0.45256-8.0604-2.205-9.1817-3.3182-1.3999-0.38158 2.6676-0.99635 5.5926-1.3662 6.5-6.904 16.941-4.1355 72.44 5.6943 114.15 4.1967 17.807 17.287 52.088 22.971 60.154 1.0286 1.4599 1.8702 3.1766 1.8702 3.8149 0 0.99378 3.8794 8.3865 12.535 23.887 1.1191 2.0042 4.9441 7.5695 8.5 12.367 3.5559 4.7979 7.6668 10.648 9.1355 13 8.7358 13.991 45.843 50.837 60.496 60.07 2.2913 1.4438 4.4486 3.0825 4.794 3.6415 0.75222 1.2171 10.787 7.755 26.54 17.291 6.6014 3.9963 22.486 11.959 36 18.046 10.386 4.6781 41.031 14.993 49.602 16.696 3.244 0.64461 7.6981 1.8082 9.8981 2.5859 3.3006 1.1667 21.852 4.028 37.5 5.7839 8.5801 0.9628 58.944-0.29537 67.5-1.6863zm209.98-360.72c-0.63182-2.8766-0.0989-4.8764 1.0053-3.7722 0.26927 0.26927 0.77552 1.9193 1.125 3.6667 0.83082 4.1541-1.2188 4.2557-2.1303 0.10557zm22.16-20.18c-0.79309-4.4041-0.99516-31.726-0.24023-32.48 0.33159-0.3316 0.6029-0.15866 0.6029 0.38431s0.9 5.1987 2 10.346c1.1 5.1474 2 11.724 2 14.614 0 8.8546-3.131 13.976-4.3627 7.1356zm8.0785-14c-0.82808-14.761 1.8851-15.624 3.9304-1.25 1.1506 8.0862 0.68542 11.5-1.5672 11.5-1.5638 0-1.8603-1.2858-2.3632-10.25zm8.7378 5.9896c-0.30112-0.78471-0.41386-4.7596-0.25053-8.8332l0.29-7.41 1.7954 3.9807c2.0033 4.4417 1.9757 12.609-0.0448 13.274-0.68721 0.22623-1.4958-0.23071-1.797-1.0154zm8-2c-0.30112-0.78471-0.41386-4.7596-0.25053-8.8332 0.37468-9.3445 3.0765-6.4104 3.2146 3.491 0.0795 5.6949-1.6397 8.7934-2.9641 5.3421zm24.22 0.51043c-0.67667-1.1412-1.8187-10.443-2.081-16.95-0.1286-3.1902-0.61414-7.1504-1.079-8.8004-0.76417-2.7125-0.68715-2.8698 0.80378-1.6416 0.90692 0.74712 2.3667 3.8971 3.244 7 0.87726 3.1029 2.0099 7.0236 2.5169 8.7126 2.097 6.9852-0.63383 16.352-3.4047 11.679zm-17.209-3.5867c-1.037-5.528 0.76972-14.792 2.3336-11.966 2.0425 3.6913 2.0488 14.66 0.009 15.079-1.2455 0.2559-1.8646-0.56705-2.3424-3.1135zm9.0599 1.1606c-0.87201-2.4594-2.5094-14.297-2.517-18.196-0.0179-9.1694 5.9469 3.645 6.3024 13.54 0.18669 5.1963-2.4458 8.4347-3.7854 4.6567zm-35.78-24.4c-0.4125-0.416-0.75-1.6714-0.75-2.7897 0-1.4718 0.30207-1.7313 1.0938-0.93955 0.60158 0.60158 0.93908 1.857 0.75 2.7897-0.18908 0.93276-0.68128 1.3556-1.0938 0.93955zm37.477-5.4142c-1.2875-1.6317-3.4514-3.0167-4.9914-3.1947-1.7234-0.19918-2.8504-1.0083-3.0785-2.2101-0.36516-1.9232-0.35219-1.9229 4.5929 0.0988 0.86115 0.35208 1.25-0.59264 1.25-3.0369 0-8.0739 3.5184-3.6153 4.6334 5.8716 0.73702 6.2709 0.65686 6.3532-2.4062 2.4713zm-31.23 0.05c0-0.51754 0.45-1.2191 1-1.559 0.55-0.33992 1 0.0835 1 0.94098 0 0.85746-0.45 1.559-1 1.559s-1-0.42344-1-0.94098zm-16.367-1.5736c-0.91-2.39-0.77-4.49 0.3-4.49 0.51294 0 1.2326 0.9453 1.5993 2.1007 0.81515 2.5683-0.96902 4.8087-1.8992 2.3848zm23.08-0.49c-0.32336-1.2366-0.0307-2 0.76674-2 0.70936 0 1.5251 0.9 1.8128 2 0.32336 1.2366 0.0307 2-0.76674 2-0.70936 0-1.5251-0.9-1.8128-2zm8.8732-0.64313c-0.34679-0.90372-0.42487-1.8488-0.17352-2.1001 0.79473-0.79474 2.5901 0.80111 2.5901 2.3023 0 1.9615-1.6389 1.8244-2.4166-0.20215zm-52.089-56.363c-0.99854-1.1034-1.521-2.3006-1.1611-2.6605 0.72923-0.72923 4.6667 2.4952 4.6667 3.8217 0 1.4599-1.6188 0.92367-3.5056-1.1611zm10.51-0.5c-2.7422-2.919-2.4439-3.067 1.8569-0.92151 1.7403 0.86816 2.9079 1.9932 2.5946 2.5-0.90497 1.4643-1.9366 1.0984-4.4515-1.5785zm-22.506-1.5061c-0.99854-1.1034-1.521-2.3006-1.1611-2.6605 0.72923-0.72923 4.6667 2.4952 4.6667 3.8217 0 1.4599-1.6188 0.92367-3.5056-1.1611zm28.71 0.81c-1.8292-1.8292-1.4325-3.8 0.76482-3.8 1.6766 0 4.0352 2.5919 4.0352 4.4343 0 1.0499-3.5902 0.57552-4.8-0.63426zm10.412-1.6764c-1.5602-1.724-1.5654-1.9274-0.0648-2.5032 2.0794-0.79792 3.0766-0.16729 3.7386 2.3641 0.67256 2.5718-1.4012 2.6504-3.6738 0.13914zm7.39-4.09c0-1.339 0.47971-1.7845 1.5-1.393 0.825 0.31659 1.5 1.2025 1.5 1.9686 0 0.76615-0.675 1.393-1.5 1.393-0.82536 0-1.5-0.8854-1.5-1.9686zm-291.25 406.72c-0.42231-1.2766-1.1658-1.7139-10.753-6.3245-11.435-5.4991-35-11.417-35-8.7896 0 0.7004 1.6875 1.5503 3.75 1.8887 14.145 2.3206 27.707 7.0579 33.224 11.606 3.5667 2.94 9.5827 4.0499 8.7788 1.6196zm21.541-4.1024c9.1859-9.4437 23.042-15.841 44.706-20.64 9.4983-2.1042 24.91-7.1063 32.5-10.548 2.75-1.2471 9.313-4.0578 14.584-6.246 5.2714-2.1882 11.85-5.6063 14.619-7.5958 2.7693-1.9895 5.2928-3.6173 5.6079-3.6173 9.4886 0 47.272-36.091 60.188-57.493 2.2-3.6452 5.6533-8.6134 7.6741-11.041 2.0207-2.4271 3.9865-5.4375 4.3683-6.6898 0.38182-1.2523 1.3483-3.023 2.1476-3.9349 3.7131-4.2356 13.691-34.951 15.379-47.342 0.44959-3.3 1.7924-11.4 2.9841-18 1.9738-10.932 2.0991-13.825 1.4078-32.5-0.4174-11.275-0.92279-25.9-1.1231-32.5-0.20029-6.6-0.88363-22.254-1.5185-34.787-1.283-25.327 0.37267-42.069 5.7838-58.484 3.3253-10.088 3.362-9.9733-3.3532-10.464-7.0465-0.51533-10.005 0.71371-12.351 5.1309-11.63 21.89-46.71 19.57-58.87-3.91-20.65-39.86 4-79.21 43.47-69.39l6 1.492 2.25-2.6043c1.2375-1.4324 2.25-3.3892 2.25-4.3486 0-0.95933 0.37562-2.1717 0.83472-2.6942 6.4181-7.3045 4.584-12.126-5.4668-14.372-18.088-4.0413-33.555-10.7-48.68-20.958-11.213-7.605-29.003-19.066-31.852-20.521-2.6458-1.3508-16.091-9.2082-26.107-15.257-8.7447-5.281-14.035-7.9955-18.229-9.354-2.2-0.71258-5.6182-2.1358-7.596-3.1626-1.9778-1.0269-6.7028-2.4868-10.5-3.2443-3.7972-0.75752-8.254-1.8295-9.904-2.3822-12.412-4.1578-68.982-5.1254-82-1.4026-35.872 10.258-57.809 19.639-79.401 33.953-5.185 3.4375-9.725 6.25-10.089 6.25-0.36389 0-1.7211 1.1278-3.0161 2.5062s-4.8609 3.9019-7.9243 5.6078c-3.0634 1.7058-6.9198 4.3198-8.5698 5.8089-1.65 1.489-3.9692 3.353-5.1539 4.1422-1.1846 0.78919-6.5846 4.555-12 8.3685-11.165 7.8627-36.039 21.043-41.725 22.11-4.5516 0.85389-5.3767 2.5143-3.3599 6.7615 0.83447 1.7574 2.2414 4.8966 3.1265 6.9761 2.0957 4.9235 3.2364 5.2469 11.737 3.3271 29.277-6.6116 54.263 13.47 53.961 43.369-0.38477 38.03-31.056 60.584-58.619 43.104-2.4387-1.5466-6.4064-3.3642-8.8171-4.0392l-4.3831-1.2272 0.51427-4.5626c0.50128-4.4473 0.45371-4.543-1.8833-3.7858-1.3186 0.42723-4.4226 0.99537-6.8976 1.2625-7.0214 0.75791-7.2094 1.3744-2.9169 9.5661 6.7671 12.914 9.7559 45.031 6.0215 64.705-1.0962 5.775-2.2651 12.75-2.5976 15.5s-1.2428 7.925-2.0229 11.5c-4.4418 20.356-4.456 35.143-0.0563 58.5 0.70281 3.7311 9.4628 34.213 10.633 37 0.46194 1.1 2.4591 6.05 4.4382 11 4.183 10.462 8.2798 18.666 13.373 26.779 4.0462 6.445 14.183 20.946 15.183 21.721 0.35509 0.275 1.806 2.353 3.2242 4.6178 2.7954 4.4641 16.283 17.166 23.032 21.69 2.3038 1.5444 5.5387 4.0666 7.1887 5.605 3.4585 3.2245 10.228 7.8619 16 10.961 2.2 1.1811 6.925 3.9999 10.5 6.264 16.61 10.53 56.69 25.86 67.58 25.86 12.126 0 39.74 10.717 49.302 19.134 5.9656 5.2512 8.061 5.035 14.404-1.4863zm11.871 1.8222c5.4705-4.9423 13.513-8.3513 22.342-9.4708 25.877-3.2809 82.936-28.035 92.161-39.983 2.3986-3.1064-4.4547-0.17875-9.1682 3.9166-10.358 8.9993-51.98 24.877-84.17 32.11-10.883 2.4451-21.176 7.8707-27.254 14.367l-2.42 2.59h2.3031c1.2667 0 4.0614-1.5886 6.2105-3.5301zm187.33-138.97c2.3331-4.95 4.8076-10.8 5.4991-13 0.6914-2.2 2.0656-5.35 3.0539-7 9.3422-15.598 14.102-60.217 11.202-105-3.0159-46.563-0.19891-76.951 8.3416-89.986 1.8353-2.8011 1.6184-3.2815-4.7339-10.482-6.4-7.25-9.78-5.52-3.85 1.97 3.5903 4.5331 3.8916 8.9569 1.077 15.815-1.0576 2.577-2.3736 6.9354-2.9244 9.6854-0.55077 2.75-1.5787 7.925-2.2843 11.5-2.0505 10.389-1.1351 46.938 1.8784 75 2.2823 21.253-0.7503 54.651-6.9463 76.5-1.7378 6.128-5.7833 18.76-6.7256 21-0.4627 1.1-2.087 5.15-3.6096 9s-3.5488 8.35-4.5028 10c-0.95391 1.65-2.034 4.125-2.4002 5.5-1.2438 4.6703 2.324-0.74003 6.9242-10.5zm-463.72-140.57c6.0625-2.1134 4.8791-4.0521-2.0421-3.3456-11.652 1.1894-14.116-7.615-8.6998-31.084 7.4713-32.375 27.216-63.275 47.087-73.69 11.984-6.2809 30.884-1.729 30.884 7.438 0 6.7583-11.569 7.6638-15.04 1.1772-1.8505-3.4577-7.7062-4.7096-14.294-3.0561-3.8438 0.96473-3.1534 3.8469 1.1313 4.7233 1.8067 0.36951 4.054 1.3238 4.994 2.1206 9.1638 7.768 19.118 8.6468 26.044 2.2994 10.89-9.9797-1.4518-22.447-22.835-23.067-19.732-0.57266-31.519-3.9906-40.918-11.866-9.9299-8.32-20.447-8.5789-27.516-0.67731-1.0635 1.1887-4.2135 3.4664-7 5.0615-6.28 3.6-19.56 18.91-19.56 22.55 0 0.34496-1.3682 2.6158-3.0405 5.0464s-3.6996 6.2872-4.5051 8.5704c-0.80556 2.2832-2.3213 5.5506-3.3682 7.261-4.414 7.2107-9.9102 28.698-11.155 43.61-0.48215 5.775-1.1533 13.425-1.4914 17-1.2481 13.197 3.2708 17.187 16.877 14.901 8.6728-1.4573 29.174 0.49471 41.183 3.9212 8.4208 2.4026 9.3371 2.4791 13.271 1.1079zm-68.07-14.56c-1.867-1.867 1.9336-26.413 4.2071-27.171 1.1545-0.38483 1.2529 0.48401 0.55678 4.9177-0.46501 2.9618-0.87239 9.2006-0.90529 13.864-0.0583 8.2581-1.2968 10.951-3.8586 8.3891zm36.965-0.0346c-0.97106-0.97106-0.81541-7.203 0.26881-10.762 0.51451-1.689 1.4326-4.9835 2.0401-7.321 0.71104-2.7356 1.6664-4.25 2.6812-4.25 1.1744 0 1.399 0.57395 0.88079 2.25-0.38263 1.2375-0.93973 5.85-1.238 10.25-0.60514 8.927-2.1853 12.281-4.6329 9.8333zm6.6931-0.83816c-0.94109-2.4524 1.3314-13.334 4.5413-21.745 1.5099-3.9567 3.5235-3.5789 2.6647 0.5-1.5896 7.5499-2.5545 14.523-2.5599 18.5-0.006 4.4265-3.2625 6.3506-4.646 2.7452zm-37.721-2.5504c-0.34651-1.7326-0.38257-3.5505-0.0801-4.0399 0.30244-0.48936 1.0009-3.7056 1.5521-7.1473 0.5512-3.4416 1.6007-7.1763 2.3322-8.2992 0.73151-1.1229 1.5902-2.9229 1.9082-4s0.31604 0.51668-0.004 3.5417c-0.32039 3.025-0.86702 9.3202-1.2147 13.989-0.69099 9.2787-3.1712 12.566-4.4933 5.9554zm7.9708-0.36359c-0.82241-3.2767 2.0133-17.633 3.8446-19.464 1.9854-1.9854 3.1948 0.80139 1.6226 3.7391-0.59235 1.1068-1.077 5.642-1.077 10.078 0 8.4252-2.7917 12.016-4.3903 5.6469zm8.6734-3.8311c0.62726-7.0399 2.9355-15.299 5.1048-18.266 2.3501-3.214 2.5168-1.4336 0.56316 6.0158-1.0097 3.85-1.8617 8.4332-1.8934 10.185-0.0742 4.0979-1.6818 8.3151-3.1698 8.3151-0.81771 0-0.99677-1.8506-0.60477-6.25zm6.6062 3.5733c-0.0609-1.0028-0.0284-2.9483 0.0723-4.3233 0.26059-3.5606 6.181-21 7.1291-21 1.9386 0 1.9414 2.4967 0.008 7.3058-1.1484 2.8568-2.428 8.3384-2.8435 12.181-0.73217 6.7718-4.0408 11.195-4.3661 5.8364zm-24.34-33.58c0.38377-1.7875 1.1873-4.15 1.7857-5.25 1.6608-3.0532 2.1446 0.54829 0.67276 5.0081-1.4736 4.4652-3.406 4.6553-2.4585 0.24191zm8.4929 0.55902c-0.0339-2.3386 1.4754-3.9154 2.3671-2.4726 0.29538 0.47794-0.10921 1.7228-0.8991 2.7663-1.389 1.8349-1.4372 1.8253-1.468-0.29366zm6.9835 0.94098c0.008-0.4125 0.43396-1.412 0.94563-2.221 1.1521-1.8218 2.5038-0.68243 1.694 1.4279-0.59808 1.5586-2.6679 2.1805-2.6396 0.79313zm17.54-0.15976c-0.7-1.14 0.38-4.09 1.5-4.09 1.3399 0 2.0082 1.6901 1.3483 3.4098-0.67706 1.7644-1.978 2.076-2.8405 0.68048zm6.9132-0.14046c-0.95021-1.5375 0.35135-2.5295 1.6348-1.246 0.71818 0.71818 0.73543 1.2775 0.0524 1.6996-0.55992 0.34605-1.3192 0.1419-1.6873-0.45366zm-15.46-2.87c0-1.22 0.65-2.08 1.57-2.08 0.93124 0 1.4414 0.68037 1.25 1.6671-0.48 2.51-2.82 2.85-2.82 0.41zm61-59.013c0-0.55 0.9-1.4817 2-2.0704 1.2864-0.68847 2-0.71358 2-0.0704 0 0.55-0.9 1.4817-2 2.0704-1.2864 0.68847-2 0.71358-2 0.0704zm-10.506-2.0799c-0.30257-0.48956 0.3329-1.3627 1.4122-1.9403 2.4007-1.2848 6.4221-1.3905 5.6546-0.14864-0.88716 1.4354-6.4537 3.0809-7.0668 2.0889zm-7.49-3.88c0-1.2182 2.9436-2.2599 4.197-1.4852 0.63768 0.3941 0.51088 0.94864-0.34024 1.4879-1.78 1.13-3.86 1.12-3.86 0zm-8.4577-2.0386c-0.64-1.05 3.21-4.07 5.18-4.07 1.9826 0 1.5094 1.7241-0.94502 3.4433-2.564 1.7959-3.4324 1.9241-4.2352 0.62512zm-3.54-6.51c0-0.86 0.45-1.56 1-1.56s1 0.42344 1 0.94098-0.45 1.2191-1 1.559c-0.55 0.33992-1-0.0835-1-0.94098zm36 84.106c0-4.5597-5.1442-18.394-7.3997-19.9-3.5097-2.3435-4.3248-0.75842-1.9858 3.8617 1.2884 2.5449 2.5561 6.0324 2.8171 7.75 1.66 10.91 1.55 10.62 4.12 10.62 1.9 0 2.45-0.52 2.45-2.33zm53-19.054c16.981-1.9334 29.492-32.758 21.427-52.792-8.1717-20.299-26.346-27.274-50.075-19.218-5.5635 1.8888-7.8054 1.1986-9.3699-2.8848-5.9198-15.45-10.328-21.771-13.189-18.91-1.1969 1.1969 8.0668 20.671 11.695 24.587 3.0385 3.2786 7.0529 4.2476 10.938 2.6402 25.731-10.647 46.594 1.7007 46.579 27.567-0.0204 33.432-33.132 46.352-49.714 19.399-2.316-3.7646-7.665-7.5051-9.2934-6.4987-2.5165 1.5553-1.0691 7.1063 2.2342 8.5683 1.7777 0.78676 4.2401 3.0055 5.4721 4.9305 8.0014 12.503 14.068 14.801 33.296 12.611zm385.42-41.677c3.8972-1.7239 5.9971-2.0437 10.187-1.5513 8.5546 1.0054 7.6099-2.1899-1.8898-6.3921-12.87-5.7-22.72-2.97-22.72 6.27 0 5.6386 4.3099 6.137 14.415 1.6668zm23.11 480.11c-0.71286-1.1534-0.19178-1.4003 6.4747-3.0677 33.79-8.4512 51.554-41.398 28.653-53.14-5.0604-2.5946-6.703-1.9157-5.9904 2.4758 2.361 14.549-19.648 30.71-43.663 32.059-18.12 1.0184-33.868 2.4323-35.02 3.1443-2.5204 1.5577-10.99 3.2809-11.564 2.3527-0.9157-1.4816 1.4179-3.6697 4.6773-4.3856 20.745-4.5564 50.47-18.659 58.906-27.947 2.3562-2.5941 8.719-7.2157 16.888-12.266 8.044-4.9736 18.02-2.003 25.649 7.6378 12.366 15.627-4.534 44.246-30.476 51.611-7.1157 2.0202-13.796 2.7214-14.535 1.5256zm-564.35-179.04c-4.4077-3.9863-10.697-5.9318-14.882-4.6036-3.5281 1.1198-5.7712-1.6049-4.4474-5.4023 3.3152-9.5101-0.41066-14.896-9.3746-13.552-6.3345 0.94992-6.5186-0.81761-0.70826-6.7992 10.324-10.63 11.429-22 4.729-48.65-7.5229-29.923-6.2931-52.108 2.8168-50.811 3.0603 0.43557 3.2512 3.644 0.65933 11.079-2.7403 7.8606-2.2685 14.557 2.6584 37.733 1.9292 9.075 3.8807 21.45 4.3365 27.5 0.8312 11.032 5.0349 24.012 11.011 34 0.98726 1.65 2.1236 4.125 2.5251 5.5 0.40155 1.375 1.7056 3.85 2.8979 5.5 7.3823 10.216 5.9083 15.862-2.2216 8.5095zm-44.102-1.5984c-6.3636-5.3546-2.1076-13.78 6.6762-13.216 8.9426 0.57394 10.806 10.413 2.7012 14.259-4.4492 2.1113-5.8077 1.9601-9.3774-1.0436zm7.3415-4.0181c2.38-0.91 2.061-5.39-0.383-5.39-2.117 0-4.5139 3.4164-3.5224 5.0207 0.69894 1.1309 1.6839 1.2248 3.9054 0.37234zm736.03-19.84c-6.7151-6.7151 0.97801-17.538 10.283-14.467 6.3423 2.0931 7.2989 9.0374 2.0211 14.671-2.9842 3.1856-9.0146 3.0854-12.305-0.20455zm9.35-3.75c1.5899-1.5899 1.5177-3.9832-0.19045-6.3193-1.66-2.26-6.61-0.72-6.61 2.06 0 4.4594 4.0572 6.9985 6.8 4.2557zm-683.69-319.71c-1.8866-1.1948-2.6115-10.052-1.1782-14.395 1.4044-4.2555 6.1869-8.0986 13.878-11.152 3.1278-1.2417 8.155-3.8994 11.172-5.906 8.771-5.8341 10.513-3.5373 3.3153 4.3716-2.6313 2.8914-5.5388 6.4979-6.4611 8.0145-0.92232 1.5166-2.1686 3.0614-2.7696 3.4328-0.60097 0.37142-2.7121 3.233-4.6913 6.3591-6.1899 9.7765-9.176 11.864-13.265 9.2751zm543.31-92.166c-5.2464-1.5234-6.7304-4.0226-5.9139-9.9596 0.78634-5.7174 1.9953-5.5219 3.2518 0.5258 2.373 11.421 20.681 3.413 22.681-9.9206 2.2677-15.122-20.799-31.699-47.406-34.069-13.129-1.1695-14.925-4.7377-2.325-4.6198 13.634 0.12765 30.142 5.424 36.312 11.65 2.4653 2.4877 6.2008 5.4358 8.301 6.5511 19.874 10.555 6.588 46.081-14.9 39.842zm-362.42-49.836c-8.1527-2.1702-3.3591-4.7835 8.9175-4.8615 14.979-0.09514 39.755-5.7122 43.129-9.7784 0.66-0.794 2.79-1.444 4.75-1.444 4.6982 0 13.742-6.1814 16.258-11.111 2.6244-5.1442 4.3048-5.4145 7.5129-1.2083 8.51 11.153 29.35 10.671 29.44-0.681 0.0259-3.1971 1.447-5.4534 2.8778-4.5691 2.861 1.7682 0.29352 11.296-4.1464 15.387-2.205 2.0317-4.0436 2.4291-14.879 3.2157-17.259 1.253-29.717 3.8119-50.863 10.448-13.223 4.1494-35.674 6.5521-43 4.6018zm240-0.20396c-20.933-2.0338-21.698-4.3277-1.5-4.4967 7.7-0.06444 15.012 0.26193 16.25 0.72525 4.5584 1.7067 1.4966 5.115-4.25 4.731-1.1-0.0735-5.825-0.50528-10.5-0.95951zm-244.31-8.234c-0.84018-2.1895 1.8689-5.4438 3.332-4.0025 0.63861 0.62908 1.0012 1.9739 0.80584 2.9885-0.43818 2.2753-3.3774 2.9955-4.1378 1.014zm205.81-0.627c-4.4-0.35421-12.05-1.3738-17-2.2658-14.191-2.5572-24.98-3.8737-39-4.7589-21.69-1.369-27.5-4.859-27.5-16.521 0-4.7038 1.4586-3.6804 2.8971 2.0327 2.8968 11.504 22.873 11.037 24.73-0.57817 0.77682-4.858 2.024-4.9235 6.4263-0.33777 4.7907 4.9904 19.95 12.115 30.446 14.308 2.75 0.57474 7.25 1.5602 10 2.19 9.6006 2.1985 27.649 2.3782 35.458 0.35306 5.3226-1.3805 7.3366-1.5468 8.2058-0.67767 4.4504 4.4504-14.532 7.8762-34.663 6.2556zm-219.5-5.269c0.006-3.757 3.5462-8.4922 6.8991-9.2287 5.668-1.2449 7.1506 2.3654 2.0538 5.0011-1.6738 0.86558-3.5461 2.6771-4.1605 4.0257-1.4415 3.1638-4.7976 3.3052-4.7924 0.2019zm-19.337-7.4167c-2.7268-2.7268 0.88429-11.238 5.918-13.949 5.1422-2.7693 14.792-0.95922 15.231 2.8571l0.31561 2.7415-5.8156-0.59795c-6.831-0.70236-10.631 1.4438-11.659 6.5843-0.56332 2.8166-2.4304 3.9229-3.9894 2.3639zm165.3-7.38c-1.63-1.741-2.96-3.708-2.96-4.372 0-8.1418-14.276-8.7544-17.312-0.74289-2.271 5.9927-4.4718 7.3955-10.156 6.4731-7.3389-1.1909-6.6587-9.0438 1.2595-14.542l4.71-3.269h12.858 12.858l4.4574 4.9195c4.5706 5.0443 5.0691 7.7749 2.0776 11.38-2.8056 3.3806-4.7459 3.4189-7.7958 0.15395zm126.49-4.8371c-1.3631-1.3631-0.0775-4.0272 2.4481-5.0733 3.2601-1.3504 9.5885 0.98852 8.8373 3.2661-0.37604 1.1401-10.355 2.7381-11.285 1.8072zm-302.1-5.166c-1.6803-1.6803 0.62267-9.8862 3.2595-11.614 4.36-2.8568 15.19-2.2707 17.98 0.97312 3.3717 3.9198 3.226 6.1436-0.33965 5.1829-7.5022-2.0213-14.088-0.33898-16.118 4.1176-1.1563 2.5377-3.0527 3.0693-4.7818 1.3403zm318.13-3.5734c-3.1986-1.9713-5.0645-2.3974-9.4822-2.1655-5.2407 0.27512-5.5 0.17388-5.5-2.1477 0-5.2132 10.446-5.2054 16.776 0.01256 6.1118 5.0378 4.7396 8.3272-1.794 4.3006zm1.02-10.968c-3.5454-2.2409-4.7126-2.4613-10.27-1.9389-6.6163 0.62191-8.89-0.76548-6.3231-3.8584 4.5255-5.4528 23.093-0.22764 23.093 6.4987 0 2.521-1.6903 2.3386-6.5-0.70146z"/>
</svg>
